#define cat_sitting_001_width 12
#define cat_sitting_001_height 12
static unsigned char cat_sitting_001_bits[] = {
   0x60, 0x0c, 0xa0, 0x0b, 0x20, 0x08, 0xa0, 0x0c, 0x20, 0x08, 0x20, 0x08,
   0x10, 0x04, 0x10, 0x04, 0x10, 0x04, 0x8e, 0x0a, 0x89, 0x0a, 0xff, 0x0f };
