#define cat_sitting_002_width 12
#define cat_sitting_002_height 12
static unsigned char cat_sitting_002_bits[] = {
   0x60, 0x0c, 0xa0, 0x0b, 0x20, 0x08, 0xa0, 0x0c, 0x20, 0x08, 0x20, 0x08,
   0x10, 0x04, 0x10, 0x04, 0x1c, 0x04, 0x8a, 0x0a, 0x8d, 0x0a, 0xfb, 0x0f };
