#define cuddle_24x24_width 24
#define cuddle_24x24_height 24
static unsigned char cuddle_24x24_bits[] = {
   0xf0, 0x00, 0x0f, 0xf0, 0x00, 0x0f, 0xfc, 0xc3, 0x3f, 0xfc, 0xc3, 0x3f,
   0xff, 0xff, 0xff, 0xff, 0xff, 0xff, 0xff, 0xff, 0xff, 0xff, 0xff, 0xff,
   0x3f, 0x3c, 0xfc, 0x3f, 0x3c, 0xfc, 0x0f, 0x00, 0xf0, 0x0f, 0x00, 0xf0,
   0x0f, 0x00, 0xf0, 0x0f, 0x00, 0xf0, 0x3c, 0x00, 0x3c, 0x3c, 0x00, 0x3c,
   0xf0, 0x00, 0x0f, 0xf0, 0x00, 0x0f, 0xc0, 0xc3, 0x03, 0xc0, 0xc3, 0x03,
   0x00, 0xff, 0x00, 0x00, 0xff, 0x00, 0x00, 0x3c, 0x00, 0x00, 0x3c, 0x00 };
