#define speech_bubble_56x48_width 56
#define speech_bubble_56x48_height 48
static unsigned char speech_bubble_56x48_bits[] = {
   0x00, 0xf0, 0xff, 0xff, 0xff, 0xff, 0x0f, 0x00, 0xf0, 0xff, 0xff, 0xff,
   0xff, 0x0f, 0x00, 0xf0, 0xff, 0xff, 0xff, 0xff, 0x0f, 0x00, 0x70, 0x00,
   0x00, 0x00, 0x00, 0x0e, 0x00, 0x7f, 0x00, 0x00, 0x00, 0x00, 0xfe, 0x00,
   0x7f, 0x00, 0x00, 0x00, 0x00, 0xfe, 0x00, 0x7f, 0x00, 0x00, 0x00, 0x00,
   0xfe, 0x00, 0x07, 0x00, 0x00, 0x00, 0x00, 0xe0, 0x00, 0x07, 0x00, 0x00,
   0x00, 0x00, 0xe0, 0x00, 0x07, 0x00, 0x00, 0x00, 0x00, 0xe0, 0x00, 0x07,
   0x00, 0x00, 0x00, 0x00, 0xe0, 0x00, 0x07, 0x00, 0x00, 0x00, 0x00, 0xe0,
   0x00, 0x07, 0x00, 0x00, 0x00, 0x00, 0xe0, 0x00, 0x07, 0x00, 0x00, 0x00,
   0x00, 0xe0, 0x00, 0x07, 0x00, 0x00, 0x00, 0x00, 0xe0, 0x00, 0x07, 0x00,
   0x00, 0x00, 0x00, 0xe0, 0x00, 0x07, 0x00, 0x00, 0x00, 0x00, 0xe0, 0x00,
   0x07, 0x00, 0x00, 0x00, 0x00, 0xe0, 0x00, 0x07, 0x00, 0x00, 0x00, 0x00,
   0xe0, 0x00, 0x07, 0x00, 0x00, 0x00, 0x00, 0xe0, 0x00, 0x07, 0x00, 0x00,
   0x00, 0x00, 0xe0, 0x00, 0x07, 0x00, 0x00, 0x00, 0x00, 0xe0, 0x00, 0x07,
   0x00, 0x00, 0x00, 0x00, 0xe0, 0x00, 0x07, 0x00, 0x00, 0x00, 0x00, 0xe0,
   0xf0, 0x07, 0x00, 0x00, 0x00, 0x00, 0xe0, 0xf0, 0x07, 0x00, 0x00, 0x00,
   0x00, 0xe0, 0xf0, 0x07, 0x00, 0x00, 0x00, 0x00, 0xe0, 0xf0, 0x07, 0x00,
   0x00, 0x00, 0x00, 0xe0, 0xff, 0x07, 0x00, 0x00, 0x00, 0x00, 0xe0, 0xff,
   0x07, 0x00, 0x00, 0x00, 0x00, 0xe0, 0xff, 0x07, 0x00, 0x00, 0x00, 0x00,
   0xe0, 0xff, 0x07, 0x00, 0x00, 0x00, 0x00, 0xe0, 0x00, 0x07, 0x00, 0x00,
   0x00, 0x00, 0xe0, 0x00, 0x07, 0x00, 0x00, 0x00, 0x00, 0xe0, 0x00, 0x07,
   0x00, 0x00, 0x00, 0x00, 0xe0, 0x00, 0x07, 0x00, 0x00, 0x00, 0x00, 0xe0,
   0x00, 0x07, 0x00, 0x00, 0x00, 0x00, 0xe0, 0x00, 0x07, 0x00, 0x00, 0x00,
   0x00, 0xe0, 0x00, 0x07, 0x00, 0x00, 0x00, 0x00, 0xe0, 0x00, 0x07, 0x00,
   0x00, 0x00, 0x00, 0xe0, 0x00, 0x07, 0x00, 0x00, 0x00, 0x00, 0xe0, 0x00,
   0x7f, 0x00, 0x00, 0x00, 0x00, 0xfe, 0x00, 0x7f, 0x00, 0x00, 0x00, 0x00,
   0xfe, 0x00, 0x7f, 0x00, 0x00, 0x00, 0x00, 0xfe, 0x00, 0x70, 0x00, 0x00,
   0x00, 0x00, 0x0e, 0x00, 0xf0, 0xff, 0xff, 0xff, 0xff, 0x0f, 0x00, 0xf0,
   0xff, 0xff, 0xff, 0xff, 0x0f, 0x00, 0xf0, 0xff, 0xff, 0xff, 0xff, 0x0f };
