#define apple_13x14_width 13
#define apple_13x14_height 14
static unsigned char apple_13x14_bits[] = {
   0x1e, 0x00, 0x3e, 0x00, 0x5c, 0x00, 0x40, 0x07, 0x4e, 0x0e, 0xf3, 0x1b,
   0xf1, 0x1c, 0xf9, 0x1f, 0xf9, 0x1f, 0xf9, 0x1f, 0xf1, 0x19, 0x02, 0x08,
   0x04, 0x04, 0xf8, 0x03 };
