#define bar_16x15_width 16
#define bar_16x15_height 15
static unsigned char bar_16x15_bits[] = {
   0xfe, 0x7f, 0x01, 0x80, 0xff, 0xff, 0x00, 0x00, 0x8e, 0x39, 0x52, 0x4a,
   0x52, 0x4a, 0xce, 0x3b, 0x52, 0x4a, 0x52, 0x4a, 0x4e, 0x4a, 0x00, 0x00,
   0xff, 0xff, 0x01, 0x80, 0xfe, 0x7f };
