#define bubbles_15x15_width 15
#define bubbles_15x15_height 15
static unsigned char bubbles_15x15_bits[] = {
   0x3c, 0x00, 0x42, 0x00, 0x8d, 0x00, 0x8d, 0x00, 0xa1, 0x00, 0x91, 0x1c,
   0x42, 0x22, 0x3c, 0x4d, 0x00, 0x4d, 0x00, 0x51, 0x38, 0x22, 0x54, 0x1c,
   0x4c, 0x00, 0x44, 0x00, 0x38, 0x00 };
