#define cat_sitting_007_12x12_width 12
#define cat_sitting_007_12x12_height 12
static unsigned char cat_sitting_007_12x12_bits[] = {
   0x00, 0x00, 0x80, 0x04, 0xc0, 0x03, 0xc0, 0x06, 0xc0, 0x07, 0xc0, 0x07,
   0xe0, 0x03, 0xe0, 0x03, 0xe0, 0x03, 0x76, 0x05, 0x70, 0x05, 0x00, 0x00 };
