#define cat_sitting_002_12x12_width 12
#define cat_sitting_002_12x12_height 12
static unsigned char cat_sitting_002_12x12_bits[] = {
   0x00, 0x00, 0x40, 0x04, 0xc0, 0x07, 0x40, 0x03, 0xc0, 0x07, 0xc0, 0x07,
   0xe0, 0x03, 0xe0, 0x03, 0xe0, 0x03, 0x74, 0x05, 0x72, 0x05, 0x00, 0x00 };
