#define cindy_14x13_width 14
#define cindy_14x13_height 13
static unsigned char cindy_14x13_bits[] = {
   0xfb, 0x37, 0xfd, 0x2f, 0x76, 0x1f, 0x76, 0x1f, 0xfe, 0x1f, 0xcf, 0x1f,
   0xff, 0x1f, 0xfe, 0x0f, 0xf0, 0x01, 0xfc, 0x0f, 0xfe, 0x1f, 0xf6, 0x1b,
   0x18, 0x06 };
