#define coco_cake_14x16_width 14
#define coco_cake_14x16_height 16
static unsigned char coco_cake_14x16_bits[] = {
   0xc0, 0x01, 0xe0, 0x03, 0xef, 0x2b, 0xce, 0x29, 0x0c, 0x28, 0x13, 0x2c,
   0xcc, 0x37, 0x30, 0x2b, 0xc3, 0x3c, 0x0c, 0x3d, 0x30, 0x34, 0xc3, 0x1c,
   0x0c, 0x3d, 0x30, 0x18, 0xc0, 0x0c, 0x00, 0x05 };
