#define cuddle_heart_11x10_width 11
#define cuddle_heart_11x10_height 10
static unsigned char cuddle_heart_11x10_bits[] = {
   0x8c, 0x01, 0xde, 0x03, 0xff, 0x07, 0xff, 0x07, 0xff, 0x07, 0xfe, 0x03,
   0xfc, 0x01, 0xf8, 0x00, 0x70, 0x00, 0x20, 0x00 };
