#define cuddle_12x12_width 12
#define cuddle_12x12_height 12
static unsigned char cuddle_12x12_bits[] = {
   0x0c, 0x03, 0x9e, 0x07, 0xff, 0x0f, 0xff, 0x0f, 0x67, 0x0e, 0x03, 0x0c,
   0x03, 0x0c, 0x06, 0x06, 0x0c, 0x03, 0x98, 0x01, 0xf0, 0x00, 0x60, 0x00 };
