#define diamond_14x12_width 14
#define diamond_14x12_height 12
static unsigned char diamond_14x12_bits[] = {
   0xa8, 0x06, 0x94, 0x0d, 0x92, 0x1d, 0x7f, 0x00, 0x89, 0x3b, 0x89, 0x3b,
   0x8a, 0x1b, 0x8c, 0x0d, 0x98, 0x07, 0xb0, 0x03, 0xe0, 0x01, 0xc0, 0x00 };
