#define door_14x15_width 14
#define door_14x15_height 15
static unsigned char door_14x15_bits[] = {
   0xff, 0x3f, 0x01, 0x20, 0x01, 0x20, 0xfd, 0x2f, 0x0d, 0x24, 0xed, 0x25,
   0xed, 0x25, 0xfd, 0x2f, 0xf9, 0x2f, 0xf9, 0x2f, 0x0d, 0x2c, 0xed, 0x25,
   0xed, 0x25, 0xfd, 0x27, 0xfd, 0x2f };
