#define ghost_14x14_width 14
#define ghost_14x14_height 14
static unsigned char ghost_14x14_bits[] = {
   0xf8, 0x01, 0xfc, 0x03, 0xfe, 0x07, 0x32, 0x07, 0x33, 0x0f, 0x7b, 0x1f,
   0xcf, 0x3f, 0x87, 0x2f, 0x97, 0x1f, 0xfe, 0x3f, 0xfc, 0x3b, 0xdc, 0x37,
   0xb8, 0x07, 0x30, 0x03 };
