#define grape_14x14_width 14
#define grape_14x14_height 14
static unsigned char grape_14x14_bits[] = {
   0x20, 0x00, 0x40, 0x00, 0x00, 0x00, 0xe6, 0x18, 0xb5, 0x35, 0x31, 0x25,
   0xe6, 0x18, 0x18, 0x06, 0x74, 0x0d, 0x64, 0x09, 0x38, 0x06, 0x80, 0x01,
   0x20, 0x01, 0xc0, 0x00 };
