#define happy_cat_14x14_width 14
#define happy_cat_14x14_height 14
static unsigned char happy_cat_14x14_bits[] = {
   0xf8, 0x07, 0xfc, 0x0f, 0xfe, 0x1f, 0xff, 0x3f, 0xef, 0x3d, 0xef, 0x3d,
   0xef, 0x3d, 0xff, 0x3f, 0xdf, 0x3e, 0x3f, 0x3f, 0xff, 0x3f, 0xfe, 0x1f,
   0xfc, 0x0f, 0xf8, 0x07 };
