#define koko_le_snail_13x11_width 13
#define koko_le_snail_13x11_height 11
static unsigned char koko_le_snail_13x11_bits[] = {
   0xc6, 0x00, 0xef, 0x01, 0xab, 0x01, 0xd6, 0x00, 0x38, 0x0e, 0x7c, 0x1b,
   0x64, 0x15, 0xfc, 0x15, 0x7c, 0x17, 0xfc, 0x18, 0xf8, 0x0f };
