#define matcha_15x16_width 15
#define matcha_15x16_height 16
static unsigned char matcha_15x16_bits[] = {
   0x00, 0x01, 0x00, 0x02, 0x60, 0x02, 0x90, 0x01, 0x10, 0x00, 0x20, 0x00,
   0x00, 0x00, 0xff, 0x0f, 0xff, 0x3f, 0xff, 0x63, 0xff, 0x67, 0xff, 0x67,
   0xff, 0x67, 0xfe, 0x3f, 0x00, 0x00, 0xfc, 0x03 };
