#define milk_16x16_width 16
#define milk_16x16_height 16
static unsigned char milk_16x16_bits[] = {
   0xe0, 0x05, 0xf0, 0x0b, 0xf0, 0x0b, 0x00, 0x00, 0xf8, 0x1b, 0xfc, 0x3d,
   0xfe, 0x7e, 0x00, 0xff, 0x7f, 0xbb, 0x7f, 0x93, 0x7f, 0xab, 0x7f, 0xbb,
   0x7f, 0xbb, 0x7f, 0xff, 0x7f, 0xff, 0x7f, 0xff };
