#define orange_14x11_width 14
#define orange_14x11_height 11
static unsigned char orange_14x11_bits[] = {
   0x06, 0x18, 0x1b, 0x2c, 0xfb, 0x2f, 0xdb, 0x2d, 0x6b, 0x2b, 0xfb, 0x2f,
   0xbb, 0x2e, 0xf7, 0x37, 0xee, 0x1b, 0x1c, 0x0c, 0xf8, 0x07 };
