#define pizza_13x14_width 13
#define pizza_13x14_height 14
static unsigned char pizza_13x14_bits[] = {
   0xfc, 0x07, 0xfe, 0x0f, 0x07, 0x1c, 0xdb, 0x1a, 0x7c, 0x04, 0xf6, 0x0e,
   0xe0, 0x07, 0x74, 0x07, 0x38, 0x02, 0x78, 0x03, 0xf0, 0x01, 0xd0, 0x01,
   0xa0, 0x00, 0x20, 0x00 };
