#define play_16x10_width 16
#define play_16x10_height 10
static unsigned char play_16x10_bits[] = {
   0xf4, 0x3f, 0xfa, 0x7f, 0xfd, 0xff, 0xdd, 0xd7, 0x8d, 0xff, 0xdd, 0xd4,
   0xfd, 0xff, 0xfd, 0xff, 0xfa, 0x7d, 0x74, 0x3a };
