#define speech_bubble_22x22_width 22
#define speech_bubble_22x22_height 22
static unsigned char speech_bubble_22x22_bits[] = {
   0xf8, 0xff, 0x1f, 0x0c, 0x00, 0x30, 0x04, 0x00, 0x20, 0x04, 0x00, 0x20,
   0x04, 0x00, 0x20, 0x04, 0x00, 0x20, 0x04, 0x00, 0x20, 0x04, 0x00, 0x20,
   0x04, 0x00, 0x20, 0x04, 0x00, 0x20, 0x04, 0x00, 0x20, 0x04, 0x00, 0x20,
   0x04, 0x00, 0x20, 0x04, 0x00, 0x20, 0x04, 0x00, 0x20, 0x04, 0x00, 0x20,
   0x06, 0x00, 0x20, 0x07, 0x00, 0x20, 0x04, 0x00, 0x20, 0x04, 0x00, 0x20,
   0x0c, 0x00, 0x30, 0xf8, 0xff, 0x1f };
