#define speech_bubble_14x12_width 14
#define speech_bubble_14x12_height 12
static unsigned char speech_bubble_14x12_bits[] = {
   0xf8, 0x1f, 0xfc, 0x3f, 0xfc, 0x3f, 0xfc, 0x3f, 0xfc, 0x3f, 0xfc, 0x3f,
   0xfe, 0x3f, 0xff, 0x3f, 0xfc, 0x3f, 0xfc, 0x3f, 0xfc, 0x3f, 0xf8, 0x1f };
