#define strawberry_12x12_width 12
#define strawberry_12x12_height 12
static unsigned char strawberry_12x12_bits[] = {
   0x6c, 0x03, 0x9c, 0x03, 0x60, 0x00, 0xf6, 0x06, 0x0f, 0x0f, 0xfd, 0x0f,
   0xff, 0x0b, 0x7f, 0x0f, 0xf6, 0x07, 0xfc, 0x03, 0xb8, 0x01, 0xf0, 0x00 };
