#define study_13x14_width 13
#define study_13x14_height 14
static unsigned char study_13x14_bits[] = {
   0xfe, 0x1f, 0xf7, 0x1d, 0xfb, 0x1b, 0x1b, 0x1b, 0xfb, 0x1b, 0x0b, 0x1a,
   0xfb, 0x1b, 0xf7, 0x1d, 0xff, 0x1f, 0x03, 0x00, 0x8d, 0x07, 0xfd, 0x17,
   0x01, 0x10, 0xfe, 0x1f };
