#define super_happy_14x14_width 14
#define super_happy_14x14_height 14
static unsigned char super_happy_14x14_bits[] = {
   0xf8, 0x07, 0xfc, 0x0f, 0xfe, 0x1f, 0xef, 0x3d, 0xef, 0x3d, 0xef, 0x3d,
   0xff, 0x3f, 0x07, 0x38, 0x27, 0x39, 0xe7, 0x39, 0xef, 0x3d, 0x1e, 0x1e,
   0xfc, 0x0f, 0xf8, 0x07 };
