#define cat_sitting_004_24x24_width 24
#define cat_sitting_004_24x24_height 24
static unsigned char cat_sitting_004_24x24_bits[] = {
   0x00, 0x3c, 0xf0, 0x00, 0x3c, 0xf0, 0x00, 0xcc, 0xcf, 0x00, 0xcc, 0xcf,
   0x00, 0x0c, 0xc0, 0x00, 0x0c, 0xc0, 0x00, 0xcc, 0xf0, 0x00, 0xcc, 0xf0,
   0x00, 0x0c, 0xc0, 0x00, 0x0c, 0xc0, 0x00, 0x0c, 0xc0, 0x00, 0x0c, 0xc0,
   0x00, 0x03, 0x30, 0x00, 0x03, 0x30, 0x00, 0x03, 0x30, 0x00, 0x03, 0x30,
   0x0f, 0x03, 0x30, 0x0f, 0x03, 0x30, 0xf3, 0xc0, 0xcc, 0xf3, 0xc0, 0xcc,
   0xcc, 0xc0, 0xcc, 0xcc, 0xc0, 0xcc, 0xf0, 0xff, 0xff, 0xf0, 0xff, 0xff };
